<?xml version="1.0" encoding="UTF-8"?>
<svg width="100" height="125" xmlns="http://www.w3.org/2000/svg">
 <g>
  <title>Layer 1</title>
  <g id="svg_1">
   <rect id="svg_2" height="6.612" width="77.615" y="29.872" x="11.192"/>
   <path id="svg_3" d="m25.106001,42.589001c0.948999,0 1.719999,-0.77 1.719999,-1.719002s-0.771,-1.718998 -1.719999,-1.718998h-0.330002h-10.180999h-0.33c-0.949,0 -1.719001,0.77 -1.719001,1.718998s0.77,1.719002 1.719001,1.719002h0.33v35.567997h-0.33c-0.949,0 -1.719001,0.771004 -1.719001,1.719002c0,0.948997 0.77,1.719002 1.719001,1.719002h0.33h10.182h0.33c0.948999,0 1.719999,-0.770004 1.719999,-1.719002c0,-0.947998 -0.771,-1.719002 -1.719999,-1.719002h-0.33v-35.567997h0.329l0,0z"/>
   <path id="svg_4" d="m45.602001,42.589001c0.948997,0 1.718998,-0.77 1.718998,-1.719002s-0.77,-1.718998 -1.718998,-1.718998h-0.330002h-10.181999h-0.331001c-0.947998,0 -1.718998,0.77 -1.718998,1.718998s0.771,1.719002 1.718998,1.719002h0.331001v35.567997h-0.331001c-0.947998,0 -1.718998,0.771004 -1.718998,1.719002c0,0.948997 0.771,1.719002 1.718998,1.719002h0.331001h10.181999h0.330002c0.948997,0 1.718998,-0.770004 1.718998,-1.719002c0,-0.947998 -0.77,-1.719002 -1.718998,-1.719002h-0.330002v-35.567997h0.330002l0,0z"/>
   <path id="svg_5" d="m65.170998,42.589001c0.949005,0 1.719002,-0.77 1.719002,-1.719002s-0.769997,-1.718998 -1.719002,-1.718998h-0.329994h-10.182003h-0.331001c-0.947998,0 -1.718998,0.77 -1.718998,1.718998s0.771,1.719002 1.718998,1.719002h0.331001v35.567997h-0.331001c-0.947998,0 -1.718998,0.771004 -1.718998,1.719002c0,0.948997 0.771,1.719002 1.718998,1.719002h0.331001h10.182003h0.329994c0.949005,0 1.719002,-0.770004 1.719002,-1.719002c0,-0.947998 -0.769997,-1.719002 -1.719002,-1.719002h-0.329994v-35.567997h0.329994l0,0z"/>
   <path id="svg_6" d="m85.797997,42.589001c0.949005,0 1.719002,-0.77 1.719002,-1.719002s-0.769997,-1.718998 -1.719002,-1.718998h-0.329994h-10.181h-0.331001c-0.948997,0 -1.720001,0.77 -1.720001,1.718998s0.771004,1.719002 1.720001,1.719002h0.331001v35.567997h-0.331001c-0.948997,0 -1.720001,0.771004 -1.720001,1.719002c0,0.948997 0.771004,1.719002 1.720001,1.719002h0.331001h10.181h0.329994c0.949005,0 1.719002,-0.770004 1.719002,-1.719002c0,-0.947998 -0.769997,-1.719002 -1.719002,-1.719002h-0.329994v-35.567997h0.329994l0,0z"/>
   <path id="svg_7" d="m49.999001,4.442l-43.987,22.817001h87.975999l-43.988998,-22.817001zm0.000999,16.833c-2.630001,0 -4.759998,-2.131001 -4.759998,-4.76s2.129997,-4.761 4.759998,-4.761c2.629002,0 4.759998,2.132 4.759998,4.761s-2.130997,4.76 -4.759998,4.76z"/>
   <polygon id="svg_8" points="88.808,89.644 88.808,84.267 11.192,84.267 11.192,89.644 5.911,89.644 5.911,95.558 94.089,95.558 94.089,89.644     "/>
  </g>
 </g>
</svg>