<?xml version="1.0" encoding="UTF-8"?>
<svg width="650" height="650" xmlns="http://www.w3.org/2000/svg">
 <g>
  <title>Layer 1</title>
  <g id="svg_16">
   <path id="svg_17" d="m79.647003,153.372009c146.098007,0 291.501007,0 437.301971,0c-4.600952,23.352997 -9.09198,46.145996 -13.645966,69.258972c-146.089996,0 -291.684998,0 -437.56601,0c-7.079002,35.891022 -14.086006,71.420044 -21.224003,107.606018c146.125004,0 291.535007,0 437.316013,0c-8.041016,40.251007 -15.933014,79.916016 -24.01001,119.54303c-0.299988,1.469971 -2.174011,3.245972 -3.69101,3.751953c-56.530975,18.850037 -113.098999,37.58606 -169.700989,56.222046c-1.868011,0.61499 -4.35199,0.61499 -6.177002,-0.077026c-48.869003,-18.546997 -97.681,-37.242004 -146.539001,-55.81897c-2.574997,-0.979004 -3.225006,-2.166992 -2.640991,-4.799011c1.549988,-6.987 2.85498,-14.028992 4.230988,-21.054016c1.837997,-9.384033 3.652008,-18.772003 5.468002,-28.115997c-0.901993,-0.23999 -1.220993,-0.39801 -1.539001,-0.39801c-34.162994,-0.029999 -68.326996,-0.006989 -102.489998,-0.131989c-3.335997,-0.011993 -3.621996,1.803986 -4.106997,4.278992c-4.162001,21.237976 -8.443001,42.453003 -12.652002,63.683044c-4.004999,20.214966 -7.967999,40.438965 -11.980999,60.817993c1.46,0.654968 2.63,1.248962 3.848,1.714966c81.773003,31.304016 163.543007,62.61499 245.364006,93.794006c2.087982,0.796021 4.942993,0.755981 7.089996,0.046021c94.502991,-31.262024 188.960999,-62.662048 283.463013,-93.929016c2.947998,-0.974976 4.320007,-2.372009 4.903992,-5.32605c9.294983,-47.033936 18.653015,-94.054932 28.018982,-141.074951c20.554016,-103.187012 41.123047,-206.371002 61.677002,-309.557007c1.834045,-9.208008 3.598022,-18.430008 5.426025,-27.806c-181.935028,-0.001007 -363.194031,-0.001007 -544.666016,-0.001007c-7.130997,35.647995 -14.209999,71.040009 -21.477997,107.372009z" fill="#000000"/>
   <path id="svg_18" d="m79.647003,153.372009c7.267998,-36.332001 14.347,-71.724014 21.477997,-107.372009c181.471985,0 362.730011,0 544.664978,0c-1.828003,9.376007 -3.591003,18.597992 -5.426025,27.806c-20.552979,103.186981 -41.122986,206.371002 -61.677002,309.557007c-9.365967,47.019989 -18.723999,94.041046 -28.018982,141.074982c-0.583984,2.953979 -1.955994,4.351013 -4.903992,5.32605c-94.501984,31.266968 -188.959991,62.666992 -283.463013,93.928955c-2.147003,0.710022 -5.002014,0.75 -7.089996,-0.045959c-81.820999,-31.179016 -163.591003,-62.490051 -245.363998,-93.794006c-1.217999,-0.466064 -2.387,-1.060059 -3.848,-1.715027c4.013,-20.378967 7.975999,-40.602966 11.982998,-60.817993c4.208002,-21.229004 8.490002,-42.444031 12.652002,-63.683014c0.485001,-2.474976 0.771,-4.290985 4.107,-4.278992c34.162998,0.125 68.327,0.10202 102.490002,0.132019c0.317993,0 0.636993,0.158997 1.539001,0.39798c-1.81601,9.343994 -3.629013,18.731995 -5.468002,28.116028c-1.376007,7.024963 -2.681,14.067017 -4.231003,21.053955c-0.584,2.632019 0.065994,3.820068 2.641006,4.799011c48.856995,18.578003 97.669998,37.27301 146.539001,55.819031c1.824982,0.692993 4.30899,0.692017 6.177002,0.077026c56.60199,-18.636047 113.17099,-37.37207 169.700989,-56.222046c1.516998,-0.505981 3.390991,-2.281006 3.69101,-3.752014c8.075989,-39.626984 15.967987,-79.291992 24.01001,-119.542999c-145.781006,0 -291.191025,0 -437.316021,0c7.136997,-36.186005 14.144997,-71.714996 21.223995,-107.605988c145.880997,0 291.476028,0 437.566025,0c4.553986,-23.113007 9.045013,-45.906006 13.645966,-69.259003c-145.801941,0.001007 -291.204956,0.001007 -437.302948,0.001007z"/>
  </g>
 </g>
</svg>