<svg xmlns="http://www.w3.org/2000/svg" xmlns:xlink="http://www.w3.org/1999/xlink" version="1.1" x="0px" y="0px" viewBox="0 0 60.8 72.5" enable-background="new 0 0 60.8 72.5" xml:space="preserve"><g><g transform="matrix(0.965926,0.258819,-0.258819,0.965926,6.16213,8.3855)"><path d="M61.9,22.9l-4.2-0.3c-0.3-1.7-1-3.2-1.9-4.6l2.7-3.2l0.5-0.6l-0.5-0.6c-0.6-0.6-1.2-1.3-1.8-1.8l-0.6-0.5l-0.6,0.5    l-3.2,2.7c-1.4-0.9-2.9-1.6-4.6-1.9l-0.3-4.2l0-0.8l-0.8,0c-0.4,0-0.8-0.1-1.3-0.1c-0.5,0-0.9,0.1-1.3,0.1l-0.8,0l0,0.8l-0.3,4.2    c-1.7,0.3-3.2,1-4.6,1.9l-3.8-3.2l-2.9,2.9l3.2,3.8C34,19.4,33.3,21,33,22.6l-4.2,0.3L28,23l0,0.8c0,0.4-0.1,0.8-0.1,1.3    c0,0.5,0.1,0.9,0.1,1.3l0,0.8l0.8,0l4.2,0.3c0.3,1.7,1,3.2,1.9,4.6l-2.7,3.2l-0.5,0.6l0.5,0.6c0.6,0.6,1.2,1.3,1.8,1.8l0.6,0.5    l0.6-0.5l3.2-2.7c1.4,0.9,2.9,1.6,4.6,1.9l0.3,4.2l0,0.8l0.8,0c0.4,0,0.8,0.1,1.3,0.1c0.5,0,0.9-0.1,1.3-0.1l0.8,0l0-0.8l0.3-4.2    c1.7-0.3,3.2-1,4.6-1.9l3.2,2.7l0.6,0.5l0.6-0.5c0.6-0.6,1.3-1.2,1.8-1.8l0.5-0.6l-0.5-0.6L55.8,32c0.9-1.4,1.6-2.9,1.9-4.6    l4.2-0.3l0.8,0l0-0.8c0-0.4,0.1-0.8,0.1-1.3c0-0.5-0.1-0.9-0.1-1.3l0-0.8L61.9,22.9z M50.9,25.1c0,3-2.5,5.5-5.5,5.5    c-3,0-5.5-2.5-5.5-5.5c0-3,2.5-5.5,5.5-5.5C48.4,19.6,50.9,22,50.9,25.1z"></path></g><g transform="matrix(0.965926,0.258819,-0.258819,0.965926,-6.83787,-6.6145)"><path d="M33.8-1.8c-0.5,0-1,0.1-1.4,0.1l-0.9,0.1l-0.1,0.9l-0.3,4.5c-1.8,0.4-3.5,1.1-5,2.1l-4.1-3.5l-3.1,3.1    l3.5,4.1c-1,1.5-1.7,3.1-2.1,5l-4.5,0.3L14.9,15l-0.1,0.9c0,0.4-0.1,0.8-0.1,1.4c0,0.5,0.1,1,0.1,1.4l0.1,0.9l0.9,0.1l4.5,0.3    c0.4,1.8,1.1,3.5,2.1,5l-2.9,3.5l-0.5,0.6l0.5,0.6c0.6,0.7,1.3,1.4,2,2l0.6,0.5l0.6-0.5l3.5-2.9c1.5,1,3.1,1.7,5,2.1l0.3,4.5    l0.1,0.9l0.9,0.1c0.4,0,0.8,0.1,1.4,0.1c0.5,0,1-0.1,1.4-0.1L36,36l0.1-0.9l0.3-4.5c1.8-0.4,3.5-1.1,5-2.1l3.5,2.9l0.6,0.5    l0.6-0.5c0.7-0.6,1.4-1.3,2-2l0.5-0.6L48,28.2l-2.9-3.5c1-1.5,1.7-3.1,2.1-5l4.5-0.3l0.9-0.1l0.1-0.9c0-0.4,0.1-0.8,0.1-1.4    c0-0.5-0.1-1-0.1-1.4L52.6,15l-0.9-0.1l-4.5-0.3c-0.4-1.8-1.1-3.5-2.1-5L48,6.2l0.5-0.6L48,4.9c-0.6-0.7-1.3-1.4-2-2l-0.6-0.5    l-0.6,0.5l-3.5,2.9c-1.5-1-3.1-1.7-5-2.1l-0.3-4.5L36-1.6l-0.9-0.1C34.8-1.7,34.3-1.8,33.8-1.8z M33.8,11.2c3.3,0,6,2.7,6,6    c0,3.3-2.7,6-6,6c-3.3,0-6-2.7-6-6S30.5,11.2,33.8,11.2z"></path></g><path d="M14.8,41.8c-0.8,0-1.7,0.2-2.5,0.3h-0.1c-0.6,0.1-1.2,0.3-1.8,0.5c-0.8,0.3-1.6,0.6-2.3,1l1.1,5.3   c-0.8,0.6-1.6,1.3-2.2,2.1L1.8,50c-0.4,0.8-0.8,1.7-1.1,2.6c-0.4,1.3-0.6,2.6-0.7,4l5.2,1.8c0.1,1,0.3,2,0.7,2.9l-3.6,4   c0.5,0.8,1,1.5,1.6,2.1l1.1,1c0.7,0.6,1.4,1.2,2.1,1.7l4-3.6c0.5,0.2,1,0.4,1.5,0.5c0.5,0.1,1,0.3,1.5,0.3l1.7,5.2   c0.8,0,1.7-0.2,2.5-0.3h0.1c0.6-0.1,1.2-0.3,1.8-0.5c0.8-0.3,1.6-0.6,2.3-1l-1.1-5.3c0.8-0.6,1.6-1.3,2.2-2.1l5.3,1.1   c0.4-0.8,0.8-1.7,1.1-2.6c0.4-1.3,0.6-2.6,0.7-4l-5.2-1.8c-0.1-1-0.3-2-0.7-2.9l3.6-4c-0.5-0.8-1-1.5-1.6-2.1l-1.1-1   c-0.7-0.6-1.4-1.2-2.1-1.7l-4,3.6c-0.5-0.2-1-0.4-1.5-0.5c-0.5-0.1-1-0.3-1.5-0.3L14.8,41.8z M15,53.7c0.2,0,0.4,0,0.6,0   c0.2,0,0.5,0,0.7,0.1c1.8,0.5,2.9,2.4,2.4,4.2c-0.5,1.8-2.4,2.9-4.2,2.4c-1.8-0.5-2.9-2.4-2.4-4.2C12.4,54.8,13.6,53.9,15,53.7z"></path></g></svg>