<?xml version="1.0" encoding="UTF-8"?>
<svg width="90" height="20" xmlns="http://www.w3.org/2000/svg">
 <g>
  <title>Layer 1</title>
  <g id="svg_48">
   <path fill="black" id="svg_41" d="m55.765842,7.653818l4.578964,-0.740432c0,0 1.173935,-2.683564 1.933071,-4.001574c0.760136,-1.318011 1.311867,0 1.311867,0l2.048851,4.001574l4.671593,0.693901c1.196091,0.555326 0.206398,1.365553 0.206398,1.365553l-3.197624,3.119529l0.783295,4.579151c0.161095,1.363527 -1.243408,0.624109 -1.243408,0.624109l-3.888294,-1.98966l-3.960781,2.035177c-1.358181,0.624107 -1.104465,-0.762686 -1.104465,-0.762686l0.691677,-4.462828l-3.10701,-3.167069c-1.035,-0.973083 0.275867,-1.294745 0.275867,-1.294745z"/>
   <path id="svg_42" d="m19.773464,7.652806l4.578964,-0.740433c0,0 1.173939,-2.682551 1.933071,-4.000561c0.760141,-1.318011 1.311872,0 1.311872,0l2.048855,4.000561l4.671587,0.693904c1.196087,0.555324 0.206398,1.365552 0.206398,1.365552l-3.197626,3.119527l0.783297,4.579153c0.161091,1.363527 -1.243404,0.624109 -1.243404,0.624109l-3.888292,-1.989662l-3.960783,2.035177c-1.358181,0.624109 -1.104465,-0.762686 -1.104465,-0.762686l0.691669,-4.462827l-3.107004,-3.167068c-1.034994,-0.973083 0.275862,-1.294746 0.275862,-1.294746z"/>
   <path id="svg_43" d="m37.770157,7.653818l4.578964,-0.740432c0,0 1.173935,-2.683564 1.933067,-4.001574c0.760139,-1.318011 1.311871,0 1.311871,0l2.048859,4.001574l4.671585,0.693901c1.196091,0.555326 0.206398,1.365553 0.206398,1.365553l-3.197624,3.119529l0.783298,4.579151c0.161087,1.363527 -1.243404,0.624109 -1.243404,0.624109l-3.888298,-1.98966l-3.960777,2.035177c-1.358185,0.624107 -1.104473,-0.762686 -1.104473,-0.762686l0.691677,-4.462828l-3.10701,-3.167069c-1.035,-0.973083 0.275867,-1.294745 0.275867,-1.294745z"/>
   <path fill="black" id="svg_44" d="m73.762535,7.652806l4.578957,-0.73942c0,0 1.173935,-2.683564 1.933067,-4.001574c0.75914,-1.318011 1.311874,0 1.311874,0l2.04985,4.001574l4.670593,0.692891c1.196083,0.555324 0.20639,1.36454 0.20639,1.36454l-3.197617,3.120539l0.783295,4.579153c0.161087,1.364538 -1.243408,0.624109 -1.243408,0.624109l-3.889297,-1.988649l-3.959778,2.035177c-1.358185,0.623096 -1.104462,-0.763699 -1.104462,-0.763699l0.691673,-4.462827l-3.10701,-3.167068c-1.034996,-0.973083 0.275871,-1.294746 0.275871,-1.294746zm2.058914,1.594156l2.14048,2.181849l-0.477234,3.07502c0,0 -0.174171,0.955887 0.761147,0.52599l2.728455,-1.401965l2.679108,1.37061c0,0 0.966537,0.508791 0.856796,-0.430908l-0.53965,-3.154931l2.203911,-2.148469c0,0 0.681602,-0.557347 -0.143974,-0.940713l-3.216759,-0.476427l-1.411537,-2.756392c0,0 -0.380577,-0.908345 -0.904121,0c-0.523544,0.907333 -1.333015,2.756392 -1.333015,2.756392l-3.15332,0.508795c0.001015,0 -0.903099,0.221522 -0.190285,0.89115z"/>
   <path id="svg_45" d="m1.776778,7.652806l4.578959,-0.73942c0,0 1.173938,-2.683564 1.933079,-4.001574c0.760138,-1.318011 1.311862,0 1.311862,0l2.048862,4.001574l4.67158,0.692891c1.196095,0.555324 0.2064,1.36454 0.2064,1.36454l-3.197627,3.120539l0.783297,4.578142c0.161098,1.364538 -1.243408,0.624105 -1.243408,0.624105l-3.888286,-1.988647l-3.960781,2.035177c-1.35818,0.623098 -1.104467,-0.763697 -1.104467,-0.763697l0.691669,-4.462826l-3.107002,-3.16707c-1.035004,-0.972071 0.275862,-1.293735 0.275862,-1.293735z"/>
  </g>
 </g>
</svg>